<?xml version="1.0" encoding="UTF-8" standalone="no"?>
<!DOCTYPE svg PUBLIC "-//W3C//DTD SVG 1.1//EN" "http://www.w3.org/Graphics/SVG/1.1/DTD/svg11.dtd">
<svg width="100%" height="100%" viewBox="0 0 168 91" version="1.1" xmlns="http://www.w3.org/2000/svg" xmlns:xlink="http://www.w3.org/1999/xlink" xml:space="preserve" xmlns:serif="http://www.serif.com/" style="fill-rule:evenodd;clip-rule:evenodd;stroke-linejoin:round;stroke-miterlimit:2;">
    <g transform="matrix(1,0,0,1,-6.93889e-18,-66.2679)">
        <g transform="matrix(127.766,0,0,127.766,6.93889e-18,155.841)">
            <path d="M0.532,0L0.744,0L0.463,-0.7L0.275,-0.7L0,0L0.207,0L0.245,-0.114L0.493,-0.114L0.532,0ZM0.446,-0.265L0.292,-0.265L0.369,-0.482L0.446,-0.265Z" style="fill:white;fill-rule:nonzero;"/>
        </g>
        <g transform="matrix(1.37173,0,0,1,-35.3361,-1.00249)">
            <g transform="matrix(36.4502,0,0,50,95.0576,103.152)">
                <path d="M0.51,-0.37C0.564,-0.402 0.599,-0.458 0.599,-0.521C0.599,-0.624 0.508,-0.7 0.384,-0.7L0.068,-0.7L0.068,0L0.39,0C0.52,0 0.617,-0.086 0.617,-0.199C0.617,-0.276 0.576,-0.338 0.51,-0.37L0.51,-0.37ZM0.416,-0.489C0.416,-0.453 0.391,-0.428 0.35,-0.428L0.253,-0.428L0.253,-0.55L0.35,-0.55C0.391,-0.55 0.416,-0.525 0.416,-0.489L0.416,-0.489ZM0.358,-0.158L0.253,-0.158L0.253,-0.286L0.358,-0.286C0.399,-0.286 0.427,-0.259 0.427,-0.222C0.427,-0.184 0.399,-0.158 0.358,-0.158L0.358,-0.158Z" style="fill:white;fill-rule:nonzero;"/>
            </g>
            <g transform="matrix(36.4502,0,0,50,118.787,103.152)">
                <path d="M0.417,0.018C0.641,0.018 0.801,-0.135 0.801,-0.35C0.801,-0.565 0.641,-0.718 0.417,-0.718C0.192,-0.718 0.031,-0.564 0.031,-0.35C0.031,-0.136 0.192,0.018 0.417,0.018L0.417,0.018ZM0.417,-0.162C0.31,-0.162 0.232,-0.241 0.232,-0.35C0.232,-0.459 0.31,-0.538 0.417,-0.538C0.523,-0.538 0.6,-0.46 0.6,-0.35C0.6,-0.24 0.523,-0.162 0.417,-0.162L0.417,-0.162Z" style="fill:white;fill-rule:nonzero;"/>
            </g>
            <g transform="matrix(36.4502,0,0,50,95.0576,157.052)">
                <path d="M0.366,0.017C0.544,0.017 0.671,-0.099 0.671,-0.271L0.671,-0.7L0.474,-0.7L0.474,-0.275C0.474,-0.206 0.43,-0.162 0.366,-0.162C0.301,-0.162 0.257,-0.206 0.257,-0.275L0.257,-0.7L0.06,-0.7L0.06,-0.271C0.06,-0.099 0.187,0.017 0.366,0.017L0.366,0.017Z" style="fill:rgb(0,111,255);fill-rule:nonzero;"/>
            </g>
            <g transform="matrix(36.4502,0,0,50,121.739,157.052)">
                <path d="M0.593,-0.7L0.019,-0.7L0.019,-0.526L0.209,-0.526L0.209,0L0.403,0L0.403,-0.526L0.593,-0.526L0.593,-0.7Z" style="fill:white;fill-rule:nonzero;"/>
            </g>
        </g>
    </g>
</svg>
