<?xml version="1.0" encoding="UTF-8" standalone="no"?>
<!DOCTYPE svg PUBLIC "-//W3C//DTD SVG 1.1//EN" "http://www.w3.org/Graphics/SVG/1.1/DTD/svg11.dtd">
<svg width="100%" height="100%" viewBox="0 0 498 238" version="1.1" xmlns="http://www.w3.org/2000/svg" xmlns:xlink="http://www.w3.org/1999/xlink" xml:space="preserve" xmlns:serif="http://www.serif.com/" style="fill-rule:evenodd;clip-rule:evenodd;stroke-linejoin:round;stroke-miterlimit:2;">
    <g transform="matrix(1,0,0,1,0.000333199,-0.000448293)">
        <g transform="matrix(1,0,0,1,-197.726,-393.471)">
            <g transform="matrix(322.658,0,0,322.658,187.635,625.02)">
                <path d="M0.403,0.018C0.59,0.018 0.733,-0.107 0.759,-0.291L0.562,-0.291C0.542,-0.213 0.481,-0.163 0.404,-0.163C0.305,-0.163 0.232,-0.241 0.232,-0.349C0.232,-0.458 0.305,-0.537 0.404,-0.537C0.477,-0.537 0.538,-0.491 0.562,-0.419L0.757,-0.419C0.729,-0.597 0.587,-0.718 0.403,-0.718C0.19,-0.718 0.031,-0.56 0.031,-0.349C0.031,-0.14 0.19,0.018 0.403,0.018L0.403,0.018Z" style="fill:white;fill-rule:nonzero;"/>
            </g>
        </g>
        <g transform="matrix(1,0,0,1,-197.726,-393.471)">
            <g transform="matrix(1,0,0,1,36.639,0.471445)">
                <g transform="matrix(1,0,0,1,396,481.193)">
                    <g transform="matrix(120,0,0,120,0,0)">
                        <path d="M0.417,0.018C0.641,0.018 0.801,-0.135 0.801,-0.35C0.801,-0.565 0.641,-0.718 0.417,-0.718C0.192,-0.718 0.031,-0.564 0.031,-0.35C0.031,-0.136 0.192,0.018 0.417,0.018L0.417,0.018ZM0.417,-0.162C0.31,-0.162 0.232,-0.241 0.232,-0.35C0.232,-0.459 0.31,-0.538 0.417,-0.538C0.523,-0.538 0.6,-0.46 0.6,-0.35C0.6,-0.24 0.523,-0.162 0.417,-0.162L0.417,-0.162Z" style="fill:white;fill-rule:nonzero;"/>
                    </g>
                    <g transform="matrix(120,0,0,120,99.84,0)">
                        <path d="M0.505,-0.7L0.505,-0.333L0.237,-0.7L0.068,-0.7L0.068,0L0.255,0L0.255,-0.38L0.532,0L0.692,0L0.692,-0.7L0.505,-0.7Z" style="fill:white;fill-rule:nonzero;"/>
                    </g>
                    <g transform="matrix(120,0,0,120,191.04,0)">
                        <path d="M0.593,-0.7L0.019,-0.7L0.019,-0.526L0.209,-0.526L0.209,0L0.403,0L0.403,-0.526L0.593,-0.526L0.593,-0.7Z" style="fill:white;fill-rule:nonzero;"/>
                    </g>
                </g>
                <g transform="matrix(120,0,0,120,396,621.625)">
                    <path d="M0.532,0L0.744,0L0.463,-0.7L0.275,-0.7L0,0L0.207,0L0.245,-0.114L0.493,-0.114L0.532,0ZM0.446,-0.265L0.292,-0.265L0.369,-0.482L0.446,-0.265Z" style="fill:white;fill-rule:nonzero;"/>
                </g>
                <g transform="matrix(120,0,0,120,481.32,621.625)">
                    <path d="M0.403,0.018C0.59,0.018 0.733,-0.107 0.759,-0.291L0.562,-0.291C0.542,-0.213 0.481,-0.163 0.404,-0.163C0.305,-0.163 0.232,-0.241 0.232,-0.349C0.232,-0.458 0.305,-0.537 0.404,-0.537C0.477,-0.537 0.538,-0.491 0.562,-0.419L0.757,-0.419C0.729,-0.597 0.587,-0.718 0.403,-0.718C0.19,-0.718 0.031,-0.56 0.031,-0.349C0.031,-0.14 0.19,0.018 0.403,0.018L0.403,0.018Z" style="fill:rgb(255,230,0);fill-rule:nonzero;"/>
                </g>
                <g transform="matrix(120,0,0,120,573.84,621.625)">
                    <path d="M0.593,-0.7L0.019,-0.7L0.019,-0.526L0.209,-0.526L0.209,0L0.403,0L0.403,-0.526L0.593,-0.526L0.593,-0.7Z" style="fill:white;fill-rule:nonzero;"/>
                </g>
            </g>
        </g>
    </g>
</svg>
