<?xml version="1.0" encoding="UTF-8" standalone="no"?>
<!DOCTYPE svg PUBLIC "-//W3C//DTD SVG 1.1//EN" "http://www.w3.org/Graphics/SVG/1.1/DTD/svg11.dtd">
<svg fill='white' width="100%" height="100%" viewBox="0 0 136 253" version="1.1" xmlns="http://www.w3.org/2000/svg" xmlns:xlink="http://www.w3.org/1999/xlink" xml:space="preserve" xmlns:serif="http://www.serif.com/" style="fill-rule:evenodd;clip-rule:evenodd;stroke-linejoin:round;stroke-miterlimit:2;">
    <g transform="matrix(1,0,0,1,-1027.63,-414.554)">
        <g transform="matrix(1,0,0,1,-207.546,91.3435)">
            <g transform="matrix(350.408,0,0,350.408,1230.27,572)">
                <path d="M0.034,-0.089C0.049,-0.079 0.068,-0.07 0.091,-0.063C0.114,-0.056 0.139,-0.052 0.168,-0.052C0.204,-0.052 0.233,-0.059 0.255,-0.071C0.276,-0.085 0.293,-0.104 0.304,-0.129C0.315,-0.154 0.323,-0.186 0.326,-0.223C0.329,-0.26 0.331,-0.302 0.331,-0.349L0.331,-0.71L0.401,-0.71L0.401,-0.349C0.401,-0.295 0.399,-0.246 0.394,-0.202C0.389,-0.157 0.378,-0.119 0.362,-0.088C0.346,-0.057 0.323,-0.032 0.292,-0.015C0.261,0.002 0.22,0.011 0.168,0.011C0.108,0.011 0.057,-0.004 0.014,-0.033L0.034,-0.089Z" style="fill-rule:nonzero;"/>
            </g>
        </g>
    </g>
</svg>
