<?xml version="1.0" encoding="UTF-8" standalone="no"?>
<!DOCTYPE svg PUBLIC "-//W3C//DTD SVG 1.1//EN" "http://www.w3.org/Graphics/SVG/1.1/DTD/svg11.dtd">
<svg fill='white' width="100%" height="100%" viewBox="0 0 190 253" version="1.1" xmlns="http://www.w3.org/2000/svg" xmlns:xlink="http://www.w3.org/1999/xlink" xml:space="preserve" xmlns:serif="http://www.serif.com/" style="fill-rule:evenodd;clip-rule:evenodd;stroke-linejoin:round;stroke-miterlimit:2;">
    <g transform="matrix(1,0,0,1,-501.667,-412.802)">
        <g transform="matrix(1,0,0,1,-207.546,91.3435)">
            <g transform="matrix(350.408,0,0,350.408,698,572)">
                <path d="M0.504,-0.577C0.484,-0.6 0.457,-0.618 0.424,-0.632C0.391,-0.646 0.353,-0.653 0.31,-0.653C0.247,-0.653 0.202,-0.641 0.173,-0.618C0.144,-0.594 0.13,-0.562 0.13,-0.521C0.13,-0.5 0.134,-0.482 0.141,-0.469C0.149,-0.455 0.161,-0.443 0.177,-0.433C0.193,-0.423 0.214,-0.414 0.238,-0.407C0.264,-0.4 0.293,-0.392 0.327,-0.385C0.365,-0.377 0.399,-0.368 0.43,-0.358C0.46,-0.348 0.486,-0.336 0.507,-0.321C0.528,-0.306 0.545,-0.287 0.556,-0.266C0.567,-0.245 0.573,-0.218 0.573,-0.186C0.573,-0.153 0.567,-0.125 0.554,-0.101C0.541,-0.077 0.524,-0.057 0.501,-0.041C0.478,-0.025 0.451,-0.013 0.42,-0.006C0.389,0.002 0.354,0.006 0.317,0.006C0.207,0.006 0.112,-0.028 0.032,-0.097L0.067,-0.154C0.08,-0.141 0.095,-0.128 0.113,-0.116C0.13,-0.104 0.15,-0.094 0.172,-0.085C0.193,-0.076 0.216,-0.069 0.241,-0.064C0.266,-0.059 0.292,-0.056 0.319,-0.056C0.376,-0.056 0.42,-0.066 0.452,-0.086C0.483,-0.107 0.499,-0.138 0.499,-0.179C0.499,-0.201 0.495,-0.22 0.486,-0.234C0.476,-0.25 0.463,-0.263 0.445,-0.274C0.427,-0.284 0.405,-0.294 0.378,-0.302C0.351,-0.31 0.32,-0.318 0.285,-0.326C0.248,-0.335 0.215,-0.344 0.187,-0.353C0.159,-0.362 0.135,-0.374 0.116,-0.388C0.097,-0.402 0.082,-0.419 0.073,-0.439C0.063,-0.458 0.058,-0.482 0.058,-0.511C0.058,-0.544 0.064,-0.573 0.077,-0.599C0.089,-0.624 0.106,-0.646 0.129,-0.663C0.152,-0.68 0.178,-0.693 0.209,-0.702C0.24,-0.711 0.274,-0.715 0.311,-0.715C0.358,-0.715 0.401,-0.708 0.438,-0.694C0.474,-0.679 0.508,-0.659 0.538,-0.633L0.504,-0.577Z" style="fill-rule:nonzero;"/>
            </g>
        </g>
    </g>
</svg>
